<svg xmlns="http://www.w3.org/2000/svg" width="512" height="512" viewBox="0 0 512 512"><rect width="512" height="512" rx="106" fill="#101722"/><rect x="105" y="235" width="140" height="176" rx="20" fill="#f4f0e7" stroke="#67dce8" stroke-width="6"/><text x="122" y="278" font-family="sans-serif" font-size="34" font-weight="bold" fill="#ac2947">4</text><path d="M175 363c-18-15-37-30-37-48a18 18 0 0 1 37-4 18 18 0 0 1 37 4c0 18-19 33-37 48" fill="#ac2947"/><rect x="105" y="92" width="140" height="176" rx="20" fill="#f4f0e7" stroke="#67dce8" stroke-width="6"/><text x="122" y="135" font-family="sans-serif" font-size="34" font-weight="bold" fill="#ac2947">7</text><path d="M175 220c-18-15-37-30-37-48a18 18 0 0 1 37-4 18 18 0 0 1 37 4c0 18-19 33-37 48" fill="#ac2947"/><rect x="267" y="92" width="140" height="176" rx="20" fill="#f4f0e7"/><text x="284" y="135" font-family="sans-serif" font-size="34" font-weight="bold" fill="#17212c">7</text><path d="M337 153c8 14 37 28 37 46a18 18 0 0 1-30 14l6 16h-26l6-16a18 18 0 0 1-30-14c0-18 29-32 37-46" fill="#17212c"/></svg>
